<?xml version="1.0" encoding="utf-8"?>
<!-- Generator: Adobe Illustrator 21.0.2, SVG Export Plug-In . SVG Version: 6.00 Build 0)  -->
<svg version="1.1" id="Layer_1" xmlns="http://www.w3.org/2000/svg" xmlns:xlink="http://www.w3.org/1999/xlink" x="0px" y="0px"
	 viewBox="0 0 462.5 87.7" style="enable-background:new 0 0 462.5 87.7;" xml:space="preserve">
<style type="text/css">
	.st0{fill:#3066BE;}
	.st1{fill:#525D7C;}
</style>
<g id="primary">
	<g>
		<path class="st0" d="M113.8,65.8V21.9h15.3c11,0,15.6,3.3,15.6,14.5v15.1c0,9.3-2.7,14.3-14.8,14.3H113.8z M138.7,37
			c0-6.6-0.5-10.2-9.1-10.2h-9.8v34.1h9.5c8,0,9.4-2.3,9.4-8.4L138.7,37L138.7,37z"/>
		<path class="st0" d="M176.2,65.8h-4.4l-0.9-2.4c-3.2,1.6-7.2,2.9-10.7,2.9c-8.5,0-10.4-4.9-10.4-11.2V44.9
			c0-7.8,4.2-10.7,11.7-10.7c5.9,0,12.1,1.1,14.5,1.9v29.7H176.2z M170.3,40c-3.2-0.8-5.8-1-7.5-1c-5.8,0-6.9,1.9-6.9,6.6v8.8
			c0,4.5,0.4,7.2,5.6,7.2c2.6,0,6.3-1.5,8.7-2.7L170.3,40L170.3,40z"/>
		<path class="st0" d="M204.1,64.8c-2.5,0.9-6.3,1.5-9.7,1.5c-5.9,0-8.4-3-8.4-8.2V39.4h-6.1v-4.7h6.1V26l5.9-1.3v10.1h11.6v4.7
			h-11.6v16.8c0,4.4,0.5,5.3,4.2,5.3c1.7,0,4.8-0.6,6.7-1.1L204.1,64.8z"/>
		<path class="st0" d="M232.8,65.8h-4.4l-0.9-2.4c-3.2,1.6-7.2,2.9-10.7,2.9c-8.5,0-10.4-4.9-10.4-11.2V44.9
			c0-7.8,4.2-10.7,11.7-10.7c5.9,0,12.1,1.1,14.5,1.9v29.7H232.8z M226.9,40c-3.2-0.8-5.8-1-7.5-1c-5.8,0-6.9,1.9-6.9,6.6v8.8
			c0,4.5,0.4,7.2,5.6,7.2c2.6,0,6.3-1.5,8.7-2.7L226.9,40L226.9,40z"/>
		<path class="st0" d="M283.5,65.8V30.3L270.3,59h-4.5l-13.2-28.8v35.5h-5.7V21.9h7.6l13.7,30.2l13.7-30.2h7.3v43.9H283.5z"/>
		<path class="st0" d="M321.5,64c-2.6,1-8.2,2.3-14.4,2.3c-8,0-12.1-2.8-12.1-10.8V46c0-7.4,3.6-11.8,12.1-11.8h2.6
			c8.4,0,11.8,4.4,11.8,11.8v5.6H301v3.8c0,4.5,1.6,6.1,6.5,6.1c4.5,0,9.1-0.9,12.6-2L321.5,64z M315.5,44.9c0-4.2-1.7-6.1-6.6-6.1
			h-1.3c-4.8,0-6.7,1.9-6.7,6.1v2.5h14.6V44.9z"/>
		<path class="st0" d="M353.4,65.8H349l-0.9-2.4c-3.2,1.6-7.2,2.9-10.7,2.9c-8.5,0-10.4-4.9-10.4-11.2V44.9
			c0-7.8,4.2-10.7,11.7-10.7c5.9,0,12.1,1.1,14.5,1.9v29.7H353.4z M347.5,40c-3.2-0.8-5.8-1-7.5-1c-5.8,0-6.9,1.9-6.9,6.6v8.8
			c0,4.5,0.4,7.2,5.6,7.2c2.6,0,6.3-1.5,8.7-2.7L347.5,40L347.5,40z"/>
		<path class="st0" d="M379.5,65.8v-20c0-3.9-0.6-6.7-5-6.7c-2.9,0-7,1.6-9,2.4v24.3h-5.9v-31h4.4l0.9,2.4c2.5-1.1,6.5-2.9,10.9-2.9
			c7.2,0,9.7,4.5,9.7,10.3v21.3L379.5,65.8L379.5,65.8z"/>
		<path class="st0" d="M391.9,27.3v-6h6.4v4.6L391.9,27.3z M392.2,65.8v-31h5.9v31H392.2z"/>
		<path class="st0" d="M425,65.8v-20c0-3.9-0.6-6.7-5-6.7c-2.9,0-7,1.6-9,2.4v24.3h-5.9v-31h4.4l0.9,2.4c2.5-1.1,6.5-2.9,10.9-2.9
			c7.2,0,9.7,4.5,9.7,10.3v21.3L425,65.8L425,65.8z"/>
		<path class="st0" d="M456.5,65c-3.2,0.6-6.5,1.3-9.9,1.3c-8.5,0-10.4-5-10.4-11.2V44.9c0-7.7,4.2-10.7,11.7-10.7
			c5.9,0,12.1,1.1,14.5,1.9v34.1c0,6.6-3.2,10.8-12.6,10.8c-4.3,0-10.5-0.9-13.5-1.8l1.4-4.7c2.9,0.7,8.9,1.7,11.6,1.7
			c5.7,0,7.1-2.2,7.1-6.6L456.5,65L456.5,65z M456.5,40c-3.2-0.8-5.8-1-7.5-1c-5.5,0-6.9,1.7-6.9,6.1v9.7c0,4,0.7,6.7,5.6,6.7
			c2.7,0,6.1-0.7,8.7-1.3L456.5,40L456.5,40z"/>
	</g>
	<path class="st0" d="M37.9,0L0,21.9v43.8l37.9,21.9l37.9-21.9V21.9L37.9,0z M70.9,22.9l-13.2,7.6V15.3L70.9,22.9z M37.9,62.9
		l-14.8-8.6l14.8-8.6l0,0l0,0l14.8,8.6L37.9,62.9z M21.4,15.3l14.8,8.6V41l-14.8-8.6C21.4,32.4,21.4,15.3,21.4,15.3z M34.6,43.8
		l-13.2,7.6V36.2L34.6,43.8z M54.4,51.5l-13.2-7.6l13.2-7.6V51.5z M39.6,41V23.8l14.8-8.6v17.1L39.6,41z M37.9,3.8l14.8,8.6L37.9,21
		l-14.8-8.6L37.9,3.8z M18.1,30.5L4.9,22.9l13.2-7.6V30.5z M3.3,25.7l14.8,8.6v20.9l18.1,10.5v17.1l-33-19L3.3,25.7L3.3,25.7z
		 M39.6,82.9V65.7l18.1-10.5V34.3l14.8-8.6v38.1L39.6,82.9z"/>
</g>
<path class="st1" d="M37.9,76.6"/>
</svg>
